/* XPM */
static const char *filesave[]={
"14 14 5 1",
". c None",
"# c #000000",
"c c #585858",
"b c #a0a0a0",
"a c #ffc0c0",
"..............",
".###########..",
".#aabbbbbbba#.",
".#aabbbbbbba#.",
".#aabbbbbbba#.",
".#aabbbbbbba#.",
".#aaaaccaaaa#.",
".#aaaccccaaa#.",
".#aaaccccaaa#.",
".#aaaaccaaaa#.",
".#aaaaaaaaaa#.",
".#aaaaaaaaaa#.",
".############.",
".............."};
/* drawn by: Carl Beckmann, 10/5/2006 */
/*
 *Copyright (C) 2003-2006 Intel Corporation
 *
 *This program is free software; you can redistribute it and/or
 *modify it under the terms of the GNU General Public License
 *as published by the Free Software Foundation; either version 2
 *of the License, or (at your option) any later version.
 *
 *This program is distributed in the hope that it will be useful,
 *but WITHOUT ANY WARRANTY; without even the implied warranty of
 *MERCHANTABILITY or FITNESS FOR A PARTICULAR PURPOSE.  See the
 *GNU General Public License for more details.
 *
 *You should have received a copy of the GNU General Public License
 *along with this program; if not, write to the Free Software
 *Foundation, Inc., 51 Franklin Street, Fifth Floor, Boston, MA  02110-1301, USA.
 */
