/* XPM */
static const char *shadeLocked[]={
"16 16 9 1",
". c None",
"# c #000000",
"g c #008080",
"f c #303030",
"e c #585858",
"c c #808080",
"d c #a0a0a0",
"b c #c0c0ff",
"a c #c3c3c3",
"...###.#........",
"...#..#.#.......",
"...#.#...#......",
"....#aa...#.....",
".bb#c#a....#....",
"bb#ccd#.b...#...",
"bb#eecdbbb..#...",
"bb.#eebbba.#....",
"bb..#ecbda#.ff..",
"bb...#eed#.f..f.",
"bb....#e#..f..f.",
"bbbb...#..gggggg",
"bbbb......gggggg",
"bbbb......gggfgg",
"bbbb......gggfgg",
"bbbbb.....gggggg"};
/* drawn by: Carl Beckmann, 10/5/2006 */
/*
 *Copyright (C) 2004-2006 Intel Corporation
 *
 *This program is free software; you can redistribute it and/or
 *modify it under the terms of the GNU General Public License
 *as published by the Free Software Foundation; either version 2
 *of the License, or (at your option) any later version.
 *
 *This program is distributed in the hope that it will be useful,
 *but WITHOUT ANY WARRANTY; without even the implied warranty of
 *MERCHANTABILITY or FITNESS FOR A PARTICULAR PURPOSE.  See the
 *GNU General Public License for more details.
 *
 *You should have received a copy of the GNU General Public License
 *along with this program; if not, write to the Free Software
 *Foundation, Inc., 51 Franklin Street, Fifth Floor, Boston, MA  02110-1301, USA.
 */
