/* XPM */
static const char *zoomingTool[]={
"22 22 7 1",
". c None",
"# c #000000",
"d c #303030",
"e c #585858",
"c c #808080",
"a c #a8dcff",
"b c #ffffff",
"......................",
"........####..........",
"......##aaaa##........",
"......#aaabba#........",
".....#aaaabbaa#.......",
".....#aaaaaaaa#.......",
".....#aaaaaaaa#.......",
".....#aaaaaaaa#.......",
"......#aaaaaa#........",
"......##aaaa##c.......",
"........####.#dc......",
"..............#dc.....",
".##.##.##.e....#dc....",
"..........#.....#dc...",
".#........#......#dc..",
".#................#dc.",
"..........#........#..",
".#........#...........",
".#....................",
"..........#...........",
".##.##.##.#...........",
"......................"};
/* drawn by: Carl Beckmann, 10/5/2006 */
/*
 *Copyright (C) 2003-2006 Intel Corporation
 *
 *This program is free software; you can redistribute it and/or
 *modify it under the terms of the GNU General Public License
 *as published by the Free Software Foundation; either version 2
 *of the License, or (at your option) any later version.
 *
 *This program is distributed in the hope that it will be useful,
 *but WITHOUT ANY WARRANTY; without even the implied warranty of
 *MERCHANTABILITY or FITNESS FOR A PARTICULAR PURPOSE.  See the
 *GNU General Public License for more details.
 *
 *You should have received a copy of the GNU General Public License
 *along with this program; if not, write to the Free Software
 *Foundation, Inc., 51 Franklin Street, Fifth Floor, Boston, MA  02110-1301, USA.
 */
